<svg width="100" height="100" viewBox="0 0 100 100" fill="none" xmlns="http://www.w3.org/2000/svg">
<path d="M93.2928 24.9023C88.8216 17.2415 82.7568 11.1765 75.0968 6.7058C67.4356 2.23488 59.0716 0 49.9996 0C40.9284 0 32.5619 2.23557 24.9023 6.7058C17.2415 11.1762 11.1769 17.2415 6.7058 24.9023C2.23534 32.5628 0 40.9284 0 49.998C0 60.8932 3.17869 70.6904 9.53764 79.392C15.8959 88.0944 24.1099 94.1164 34.1788 97.458C35.3509 97.6756 36.2186 97.5224 36.7827 97.0028C37.347 96.4824 37.6289 95.8308 37.6289 95.0504C37.6289 94.9204 37.6177 93.7488 37.596 91.5348C37.5737 89.3212 37.5632 87.3896 37.5632 85.7416L36.0658 86.0008C35.111 86.1756 33.9066 86.2496 32.4525 86.2288C30.999 86.2084 29.4902 86.056 27.928 85.7728C26.3651 85.4924 24.9114 84.8412 23.5658 83.8212C22.2209 82.8012 21.2662 81.4664 20.7018 79.818L20.0508 78.32C19.6169 77.3224 18.9337 76.2144 18.0004 75C17.0671 73.7844 16.1233 72.9604 15.1685 72.5264L14.7127 72.2C14.409 71.9832 14.1271 71.7216 13.8665 71.4184C13.6061 71.1148 13.4111 70.8112 13.2809 70.5068C13.1505 70.2024 13.2586 69.9528 13.6063 69.7568C13.9541 69.5612 14.5825 69.466 15.4944 69.466L16.796 69.6604C17.664 69.8344 18.7378 70.354 20.0186 71.2228C21.2988 72.0904 22.3511 73.2188 23.1759 74.6068C24.1746 76.3868 25.378 77.7432 26.7892 78.6764C28.1993 79.61 29.6211 80.0756 31.0531 80.0756C32.4851 80.0756 33.7219 79.9672 34.764 79.7512C35.8049 79.534 36.7816 79.208 37.6934 78.774C38.084 75.8652 39.1476 73.63 40.8832 72.068C38.4094 71.808 36.1855 71.4164 34.2101 70.896C32.2358 70.3748 30.1957 69.5288 28.091 68.3556C25.9852 67.1844 24.2383 65.7296 22.8498 63.9944C21.4612 62.2584 20.3215 59.9788 19.4324 57.1584C18.5429 54.3368 18.098 51.082 18.098 47.3928C18.098 42.1404 19.8128 37.6706 23.2416 33.9812C21.6354 30.0322 21.787 25.6053 23.697 20.7009C24.9556 20.3098 26.8223 20.6033 29.2959 21.5795C31.77 22.5561 33.5814 23.3928 34.732 24.0864C35.8827 24.7798 36.8046 25.3675 37.4992 25.844C41.5364 24.716 45.7028 24.1518 49.9992 24.1518C54.2956 24.1518 58.4628 24.716 62.5 25.844L64.974 24.2823C66.6656 23.2402 68.6636 22.2852 70.9624 21.4171C73.2628 20.5495 75.0216 20.3105 76.2376 20.7016C78.19 25.6062 78.364 30.0329 76.7572 33.9818C80.186 37.6713 81.9012 42.1424 81.9012 47.3936C81.9012 51.0828 81.4548 54.3476 80.5668 57.1912C79.6772 60.0348 78.528 62.312 77.1176 64.0272C75.706 65.742 73.948 67.1852 71.8432 68.3564C69.738 69.5284 67.6972 70.3744 65.7232 70.8956C63.748 71.4168 61.524 71.8088 59.0504 72.0692C61.3064 74.0216 62.4348 77.1032 62.4348 81.3132V95.0488C62.4348 95.8288 62.706 96.4804 63.2492 97.0008C63.7916 97.5208 64.6484 97.6736 65.8204 97.456C75.8908 94.1148 84.1048 88.0928 90.4628 79.3904C96.82 70.6884 100 60.8916 100 49.9964C99.9976 40.9276 97.7612 32.5628 93.2928 24.9023Z" fill="#02A7A7"/>
</svg>
