<?xml version="1.0" encoding="utf-8"?>
<!-- Svg Vector Icons : http://www.onlinewebfonts.com/icon -->
<!DOCTYPE svg PUBLIC "-//W3C//DTD SVG 1.1//EN" "http://www.w3.org/Graphics/SVG/1.1/DTD/svg11.dtd">
<svg version="1.1" xmlns="http://www.w3.org/2000/svg" xmlns:xlink="http://www.w3.org/1999/xlink" x="0px" y="0px" viewBox="0 0 1000 1000" enable-background="new 0 0 1000 1000" xml:space="preserve">
<metadata> Svg Vector Icons : http://www.onlinewebfonts.com/icon </metadata>
<g><path d="M834.5,990l-27-26.8c94.7-127.7,146.9-290.9,146.9-459.4c0-172.1-54.1-337.8-152.3-466.6L828.9,10C932.8,146.4,990,321.7,990,503.8C990,682.1,934.8,854.8,834.5,990L834.5,990L834.5,990z M723.2,856.3l-27.9-25.7c64.8-93.7,99-206.8,99-327.1c0-121.7-36.8-240.2-103.7-333.8l27.5-26.2c72.2,101,111.8,228.8,111.8,360C829.9,633.3,793,755.3,723.2,856.3L723.2,856.3L723.2,856.3z M572.3,707.3c40.2-60.4,61.5-132.6,61.5-209.1c0-74.8-20.5-145.9-59.2-205.5l28.5-24.7c43.4,66.8,66.3,146.4,66.3,230.2c0,85.6-23.8,166.5-68.9,234.2L572.3,707.3L572.3,707.3L572.3,707.3z M453.8,895.8L255,714.4c-5.3,3,6.5,0,0,0H40.6c-20.4,0-30.6-9.8-30.6-30.6V377.5c0-20.8,10.2-30.6,30.6-30.6h183.7c-5.5-3.8-4.4-1.9,0,0l229.4-223.8c20.4,0,46.2,19.2,46.2,40.1v704.4C500,888.3,474.2,895.8,453.8,895.8L453.8,895.8L453.8,895.8z M469.4,163.1L255,377.5H40.6v306.3H255l214.4,183.8V163.1L469.4,163.1L469.4,163.1z"/></g>
</svg>